# xmcd
#
# Track frame offsets:
#	150
#	16742
#	34640
#	49831
#	64265
#	81845
#	98355
#	116659
#	134290
#	149855
#	163066
#	177228
#	188525
#	198846
#	212636
#	228285
#	243079
#	256260
#
# Disc length: 3610 seconds
#
# Revision: 2
# Processed by: cddbd v1.5.2PL0 Copyright (c) Steve Scherf et al.
# Submitted via: audiograbber 1.83.01
#
DISCID=ed0e1812
DTITLE=Various Artist - CDX Volume 390 February 2006
DYEAR=2006
DGENRE=Country
TTITLE0=Steve Holy - Brand New Girlfriend
TTITLE1=Hot Apple Pie - Easy Does It
TTITLE2=Josh Gracin - Favorite State Of Mind
TTITLE3=Cowboy Crush - Hillbilly Nation
TTITLE4=Eric Church - How 'Bout You
TTITLE5=Paulette Carlson - I Knew A Good Thing When I Had It
TTITLE6=Jace Everett - Nowhere In The Neighborhood
TTITLE7=Mark McGuinn - One Man's Crazy
TTITLE8=Gretchen Wilson (feat. Merle Haggard) - Politically Uncorrect (Radio Mi
TTITLE8=x)
TTITLE9=Ashley Monroe - Satisfied
TTITLE10=Kentucky Headhunters - Take These Chains From My Heart
TTITLE11=Dale Watson - Whiskey Or God
TTITLE12=Kimberlee Styles - Afraid To Love You
TTITLE13=Floyd Flowers - Being The Life Of The Party
TTITLE14=Eddie Bush - Call Me Lucky
TTITLE15=Brandie Frampton - Day By Day
TTITLE16=J.W. Cudd - Gold Diggers Dream
TTITLE17=Mike Lee (feat. Lisa Gregg) - It's True
EXTD=
EXTT0=
EXTT1=
EXTT2=
EXTT3=
EXTT4=
EXTT5=
EXTT6=
EXTT7=
EXTT8=
EXTT9=
EXTT10=
EXTT11=
EXTT12=
EXTT13=
EXTT14=
EXTT15=
EXTT16=
EXTT17=
PLAYORDER=
